<?xml version="1.0" standalone="no"?>
<!DOCTYPE svg PUBLIC "-//W3C//DTD SVG 20010904//EN"
 "http://www.w3.org/TR/2001/REC-SVG-20010904/DTD/svg10.dtd">
<svg version="1.0" xmlns="http://www.w3.org/2000/svg"
 width="387.000000pt" height="387.000000pt" viewBox="0 0 387.000000 387.000000"
 preserveAspectRatio="xMidYMid meet">
<metadata>
Created by potrace 1.14, written by Peter Selinger 2001-2017
</metadata>
<g transform="translate(0.000000,387.000000) scale(0.100000,-0.100000)"
fill="#000000" stroke="none">
<path d="M2118 3826 c-1 -2 -48 -6 -103 -10 -149 -10 -197 -15 -228 -26 -16
-5 -36 -6 -45 -2 -19 9 -131 7 -177 -3 -16 -4 -39 -8 -50 -9 -22 -3 -88 -22
-120 -36 -11 -4 -60 -25 -110 -45 -200 -83 -487 -245 -522 -295 -8 -11 -13
-34 -11 -52 3 -30 -1 -34 -102 -95 -131 -78 -144 -93 -136 -153 l6 -45 -57
-43 c-32 -23 -76 -59 -99 -79 -22 -21 -57 -53 -77 -71 -45 -39 -74 -95 -81
-151 -5 -47 10 -100 33 -117 13 -10 10 -19 -22 -68 -20 -31 -37 -60 -37 -66 0
-5 -3 -10 -8 -10 -8 0 -32 -54 -52 -115 -7 -22 -16 -44 -20 -50 -4 -5 -11 -30
-14 -55 -3 -25 -11 -71 -17 -103 -9 -54 -7 -202 6 -427 5 -72 20 -158 50 -289
3 -13 11 -34 17 -45 6 -12 11 -23 11 -26 0 -3 4 -16 10 -30 6 -14 11 -28 12
-32 2 -5 4 -10 5 -13 1 -3 3 -8 4 -12 9 -34 65 -133 112 -199 32 -43 76 -106
98 -139 23 -33 69 -89 102 -125 34 -36 83 -93 109 -128 54 -71 179 -186 262
-239 46 -29 131 -73 153 -78 3 -1 17 -7 33 -13 29 -12 154 -45 222 -58 22 -4
46 -8 54 -10 8 -1 18 -9 23 -17 16 -30 67 -77 82 -77 9 0 16 -4 16 -9 0 -5 12
-13 28 -19 15 -6 36 -13 47 -18 11 -4 25 -8 30 -9 6 -2 30 -8 55 -15 25 -7 59
-14 75 -17 17 -2 46 -8 65 -13 46 -11 180 -24 255 -24 107 1 299 27 390 54
345 102 624 258 826 461 81 82 121 146 99 159 -17 11 -59 3 -89 -17 -28 -18
-25 -12 42 76 52 69 110 182 122 239 8 37 8 37 64 18 48 -18 70 -15 109 14 46
34 135 217 157 324 3 10 9 33 14 50 6 17 12 42 15 56 2 14 12 63 22 110 11 50
18 129 19 190 0 90 -3 110 -22 141 -16 28 -20 47 -15 75 7 50 7 77 -2 144 -4
30 -9 82 -11 115 -11 138 -27 204 -85 330 -14 33 -30 80 -34 103 -7 48 -55
175 -68 180 -4 2 -8 9 -8 15 0 12 -101 175 -135 217 -37 47 -155 160 -168 161
-35 2 -51 11 -92 50 -25 24 -53 48 -62 53 -10 5 -28 20 -42 34 -29 29 -143
113 -226 167 -33 21 -79 51 -103 67 -24 15 -47 28 -53 28 -5 0 -9 5 -9 10 0 6
-4 10 -9 10 -6 0 -29 13 -53 29 -39 26 -114 57 -161 66 -9 2 -21 6 -25 9 -4 2
-27 7 -52 11 -25 4 -48 8 -51 11 -4 2 -42 6 -85 10 -44 3 -84 7 -91 9 -6 2
-13 2 -15 1z"/>
</g>
</svg>
